<?xml version="1.0" encoding="UTF-8"?>
<svg xmlns="http://www.w3.org/2000/svg" xmlns:xlink="http://www.w3.org/1999/xlink" width="512" height="512" viewBox="0 0 60 60" version="1.1"><!-- Generator: Sketch 51.3 (57544) - http://www.bohemiancoding.com/sketch --><title>011 - Wheelchair access</title><desc>Created with Sketch.</desc><defs/><g id="Page-1" stroke="none" stroke-width="1" fill="none" fill-rule="evenodd"><g id="011---Wheelchair-access" fill-rule="nonzero"><path d="M59,30 C59,46.0162577 46.0162577,59 30,59 C29.5,59 29,58.99 28.51,58.96 L28.49,58.96 C13.0867301,58.1501426 1.0126293,45.4245451 1.0126293,30 C1.0126293,14.5754549 13.0867301,1.84985739 28.49,1.04 L28.51,1.04 C29,1.01 29.5,1 30,1 C46.0162577,1 59,13.9837423 59,30 Z" id="Shape" fill="#CAD9FC"/><path d="M56,30 C55.9996482,45.4291761 43.9182463,58.1566188 28.51,58.96 L28.49,58.96 C13.0867301,58.1501426 1.0126293,45.4245451 1.0126293,30 C1.0126293,14.5754549 13.0867301,1.84985739 28.49,1.04 L28.51,1.04 C43.9182463,1.84338124 55.9996482,14.5708239 56,30 Z" id="Shape" fill="#E8EDFC"/><circle id="Oval" fill="#CAD9FC" cx="30" cy="30" r="25"/><path d="M50.293,15.413 C31.5831345,16.6886286 16.6886286,31.5831345 15.413,50.293 C7.36962584,44.5150613 3.4966244,34.5328004 5.53829936,24.8419797 C7.57997432,15.151159 15.151159,7.57997432 24.8419797,5.53829936 C34.5328004,3.4966244 44.5150613,7.36962584 50.293,15.413 Z" id="Shape" fill="#E8EDFC"/><circle id="Oval" fill="#FFFFFF" cx="30" cy="13" r="3"/><path d="M46.2,42.6 C45.7756536,42.9182598 45.2422591,43.0549135 44.7171573,42.979899 C44.1920554,42.9048844 43.7182598,42.6243464 43.4,42.2 L41.91,40.21 L38.92,36.22 L38,35 L30,35 C28.8967981,34.9967052 28.0032948,34.1032019 28,33 L28,22 C28,20.8954305 28.8954305,20 30,20 C31.1045695,20 32,20.8954305 32,22 L32,23 L36,23 C37.0062616,23.0021705 37.8542194,23.7516282 37.98,24.75 C37.9920298,24.8328172 37.9987103,24.9163236 38,25 C37.9967052,26.1032019 37.1032019,26.9967052 36,27 L32,27 L32,31 L39,31 C39.6290338,31.0020295 40.2209561,31.2979907 40.6,31.8 L43,35 L46.6,39.8 C47.2592853,40.6845384 47.0805846,41.935443 46.2,42.6 Z" id="Shape" fill="#A4C2F7"/><path d="M41.91,40.21 C39.4078608,45.9234041 33.200526,49.0545402 27.11859,47.67116 C21.0366539,46.2877798 16.7943488,40.7797978 17.009634,34.5462323 C17.2249191,28.3126667 21.8371151,23.1104877 28,22.15 L28,26.22 C23.5617724,27.233633 20.5793861,31.401844 21.0526477,35.9296845 C21.5259093,40.457525 25.3057627,43.9189292 29.8576684,43.9928903 C34.4095742,44.0668514 38.299887,40.7300749 38.92,36.22 L41.91,40.21 Z" id="Shape" fill="#A4C2F7"/><path d="M28.49,58.96 L28.51,58.96 C29,58.99 29.5,59 30,59 C30.5,59 31.016,58.986 31.52,58.96 L31.49,58.96 C16.0867301,58.1501426 4.0126293,45.4245451 4.0126293,30 C4.0126293,14.5754549 16.0867301,1.84985739 31.49,1.04 L31.519,1.04 C31.0163333,1.01333333 30.51,1 30,1 C29.5,1 29,1.01 28.51,1.04 L28.49,1.04 C13.0867301,1.84985739 1.0126293,14.5754549 1.0126293,30 C1.0126293,45.4245451 13.0867301,58.1501426 28.49,58.96 Z" id="Shape" fill="#FFFFFF"/><path d="M0,30 C0.0152302936,25.5000061 1.03647865,21.0603603 2.989,17.006 C3.59504906,15.7406703 4.28387677,14.5166815 5.051,13.342 C5.451,12.766 5.884,12.214 6.299,11.649 C6.70879987,11.0798067 7.15931331,10.5410621 7.647,10.037 C9.50518025,7.93017417 11.6612988,6.10623259 14.047,4.623 C16.4200528,3.11712626 18.9974714,1.96060524 21.7,1.189 C24.4023022,0.42920803 27.1930701,0.029422126 30,3.55271368e-15 L30,2 C27.3787875,2.02876715 24.7727543,2.40230641 22.249,3.111 C19.7285991,3.8291945 17.3248825,4.90694331 15.112,6.311 C12.8845731,7.69493223 10.8718754,9.39767317 9.138,11.365 C8.68146476,11.8361381 8.26094936,12.3408903 7.88,12.875 C7.493,13.403 7.085,13.916 6.714,14.454 C5.99881369,15.5506682 5.35643101,16.6931273 4.791,17.874 C2.96840327,21.6574202 2.0148077,25.8004872 2,30 L0,30 Z" id="Shape" fill="#FFFFFF"/><path d="M1.456,25.027 C1.19096929,24.9844678 0.920009207,25.0510422 0.704865527,25.2115521 C0.489721847,25.3720621 0.348723184,25.6128336 0.314,25.879 L0.16,26.9 L0.1,27.934 L0,30 L2,30 L2.1,28.071 L2.151,27.106 L2.298,26.152 C2.36424571,25.6119307 1.99283965,25.1156934 1.456,25.027 Z" id="Shape" fill="#428DFF"/><path d="M30,2 L30,0 C27.1930701,0.029422126 24.4023022,0.42920803 21.7,1.189 C18.9985118,1.96087406 16.422121,3.11738727 14.05,4.623 C11.6642988,6.10623259 9.50818025,7.93017417 7.65,10.037 C7.16162439,10.540993 6.71044109,11.0797393 6.3,11.649 C5.885,12.214 5.45,12.766 5.052,13.342 C4.28487677,14.5166815 3.59604906,15.7406703 2.99,17.006 L2.542,17.938 C2.4274493,18.1836683 2.4199952,18.4658596 2.52141652,18.7172328 C2.62283783,18.968606 2.82403679,19.1666122 3.077,19.264 C3.57990196,19.4569797 4.14656444,19.2298788 4.377,18.743 L4.796,17.874 C5.36143101,16.6931273 6.00381369,15.5506682 6.719,14.454 C7.09,13.916 7.498,13.403 7.885,12.875 C8.2661104,12.3422689 8.68662209,11.8388582 9.143,11.369 C10.8768754,9.40167317 12.8895731,7.69893223 15.117,6.315 C17.3298825,4.91094331 19.7335991,3.8331945 22.254,3.115 C24.7759597,2.40538805 27.3802865,2.03050755 30,2 Z" id="Shape" fill="#428DFF"/><path d="M1.154,21.832 C1.08931344,22.0963832 1.12494273,22.3753606 1.254,22.615 L1.368,22.771 C1.41238559,22.8220364 1.46352334,22.8667819 1.52,22.904 C1.56809991,22.9450551 1.62201905,22.9787546 1.68,23.004 C1.74125466,23.030981 1.80442837,23.0533759 1.869,23.071 C2.12667079,23.1296314 2.39687894,23.0923 2.629,22.966 C3.09142766,22.6885374 3.24476207,22.0908006 2.973,21.625 C2.90844459,21.5136334 2.82484284,21.4144621 2.726,21.332 C2.62782814,21.2468412 2.51357566,21.1822342 2.39,21.142 C2.1337464,21.0634804 1.85715746,21.0860225 1.617,21.205 C1.38800941,21.3469332 1.22226743,21.5713829 1.154,21.832 Z" id="Shape" fill="#428DFF"/><path d="M30,60 C13.4392249,59.981263 0.0187370435,46.5607751 0,30 C-6.76353751e-17,29.4477153 0.44771525,29 1,29 C1.55228475,29 2,29.4477153 2,30 C2,45.463973 14.536027,58 30,58 C45.463973,58 58,45.463973 58,30 C58,14.536027 45.463973,2 30,2 C29.4477153,2 29,1.55228475 29,1 C29,0.44771525 29.4477153,1.01453063e-16 30,0 C46.5685425,1.90270905e-15 60,13.4314575 60,30 C60,46.5685425 46.5685425,60 30,60 Z" id="Shape" fill="#428DFF"/><path d="M30,56 C15.6405965,56 4,44.3594035 4,30 C4,15.6405965 15.6405965,4 30,4 C44.3594035,4 56,15.6405965 56,30 C55.983468,44.3525501 44.3525501,55.983468 30,56 Z M30,6 C16.745166,6 6,16.745166 6,30 C6,43.254834 16.745166,54 30,54 C43.254834,54 54,43.254834 54,30 C53.9845705,16.7515624 43.2484376,6.01542952 30,6 Z" id="Shape" fill="#428DFF"/><path d="M30,17 C27.790861,17 26,15.209139 26,13 C26,10.790861 27.790861,9 30,9 C32.209139,9 34,10.790861 34,13 C34,14.060866 33.5785726,15.0782816 32.8284271,15.8284271 C32.0782816,16.5785726 31.060866,17 30,17 Z M30,11 C28.8954305,11 28,11.8954305 28,13 C28,14.1045695 28.8954305,15 30,15 C31.1045695,15 32,14.1045695 32,13 C32,11.8954305 31.1045695,11 30,11 Z" id="Shape" fill="#428DFF"/><path d="M45,44 C44.0563572,43.9973433 43.168311,43.5533202 42.6,42.8 L37.5,36 L30,36 C28.3431458,36 27,34.6568542 27,33 L27,22 C27,20.3431458 28.3431458,19 30,19 C31.6568542,19 33,20.3431458 33,22 L36,22 C37.6568542,22 38.9999999,23.3431458 38.9999999,25 C38.9999999,26.6568542 37.6568542,28 36,28 L33,28 L33,30 L39,30 C39.942085,30.0033896 40.8290324,30.4446459 41.4,31.194 L47.4,39.2 C48.3941125,40.5254834 48.1254834,42.4058875 46.8,43.4 C46.2812921,43.7905732 45.6493103,44.0012339 45,44 Z M30,21 C29.4477153,21 29,21.4477153 29,22 L29,33 C29,33.5522847 29.4477153,34 30,34 L38,34 C38.3147573,34 38.6111456,34.1481942 38.8,34.4 L44.2,41.6 C44.5388561,42.0290041 45.1545769,42.1169642 45.6,41.8 C46.0418278,41.4686292 46.1313708,40.8418278 45.8,40.4 L39.8,32.4 C39.6097222,32.1499057 39.3142421,32.0021656 39,32 L32,32 C31.4477153,32 31,31.5522847 31,31 L31,27 C31,26.4477153 31.4477153,26 32,26 L36,26 C36.5522847,26 37,25.5522847 37,25 C36.9986739,24.958783 36.9946654,24.9176961 36.988,24.877 C36.9261303,24.377774 36.5030403,24.0022174 36,24 L32,24 C31.4477153,24 31,23.5522847 31,23 L31,22 C31,21.4477153 30.5522847,21 30,21 Z" id="Shape" fill="#428DFF"/><path d="M30,49 C22.6751664,49.0160097 16.5762035,43.3830944 16.011123,36.0800726 C15.4460426,28.7770508 20.6058904,22.272971 27.846,21.162 C28.3880955,21.0840617 28.8920312,21.4566761 28.9763782,21.9978115 C29.0607252,22.5389469 28.6940995,23.0472561 28.154,23.138 C22.4664256,24.0273974 18.211749,28.83043 18.0149868,34.5837608 C17.8182246,40.3370915 21.7348195,45.4195791 27.3483416,46.6954706 C32.9618638,47.9713621 38.6905664,45.0811439 41,39.808 C41.132499,39.4651524 41.4424009,39.222627 41.8070447,39.1764169 C42.1716884,39.1302067 42.5322912,39.2877612 42.7461242,39.5867192 C42.9599571,39.8856773 42.9925491,40.277845 42.831,40.608 C40.5990297,45.7043229 35.5636493,48.9976681 30,49 Z M30,45 C24.9025666,45.0100225 20.6134103,41.1842404 20.0431187,36.1187991 C19.472827,31.0533579 22.803944,26.3696489 27.776,25.246 C28.1261524,25.1606389 28.4951494,25.2703 28.7418511,25.5330384 C28.9885529,25.7957769 29.0747885,26.1709405 28.9675733,26.5150308 C28.8603581,26.8591211 28.5762809,27.1188988 28.224,27.195 C24.278624,28.0952404 21.6268527,31.799949 22.0468754,35.8248721 C22.4668981,39.8497951 25.8264192,42.9271926 29.872656,42.9934645 C33.9188929,43.0597365 37.3773923,40.094009 37.929,36.085 C38.0035584,35.5376858 38.5076858,35.1544416 39.055,35.229 C39.6023142,35.3035584 39.9855584,35.8076858 39.911,36.355 C39.2179524,41.3009611 34.9942592,44.985133 30,45 Z" id="Shape" fill="#428DFF"/></g></g></svg>
